<?xml version="1.0" encoding="iso-8859-1" standalone="no"?> 
<?xml-stylesheet href="Control-system.css" type="text/css"?> 
<svg xmlns="http://www.w3.org/2000/svg" xmlns:xlink="http://www.w3.org/1999/xlink" width="152.10962pt" height="142.24841pt" viewBox="-25.67712 -11.37149 152.10962 142.24841 "> 
<g transform="translate(0, 130.87692 ) scale(1,-1) translate(0,11.37149 )"> 
        <g>
 <g stroke="rgb(0.0%,0.0%,0.0%)">
 <g fill="rgb(0.0%,0.0%,0.0%)">
 <g stroke-width="0.4pt">
 <g>
 <g>
 <g stroke-width="0.8pt">
 <path d=" M  0.0 0.0 L  113.10097 0.0  " style="fill:none"/>
 <g>
 <g transform="matrix(1.0,0.0,0.0,1.0,113.10097,0.0)">
 <g>
 <g stroke-width="0.64pt">
 <g stroke-dasharray="none" stroke-dashoffset="0.0pt">
 <g stroke-linecap="round">
 <g stroke-linejoin="round">
 <path d=" M  -1.55997 2.07996 C  -1.42996 1.29997 0.0 0.12999 0.38998 0.0 C  0.0 -0.12999 -1.42996 -1.29997 -1.55997 -2.07996  " style="fill:none"/>
 </g>
 </g>
 </g>
 </g>
 </g>
  </g>
 </g>
 <g>
 <g>
 <g transform="matrix(1.0,0.0,0.0,1.0,117.54395,-8.03851)">
 <g fill="rgb(0.0%,0.0%,0.0%)">
 <text style="stroke:none" transform="scale(1,-1) translate(2.77779,0)" text-anchor="middle"  font-size="10"> 
n</text> 
</g>
 </g>
 </g>
 </g>
 </g>
 </g>
 <g>
 <g stroke-width="0.8pt">
 <path d=" M  0.0 0.0 L  0.0 113.10097  " style="fill:none"/>
 <g>
 <g transform="matrix(0.0,1.0,-1.0,0.0,0.0,113.10097)">
 <g>
 <g stroke-width="0.64pt">
 <g stroke-dasharray="none" stroke-dashoffset="0.0pt">
 <g stroke-linecap="round">
 <g stroke-linejoin="round">
 <path d=" M  -1.55997 2.07996 C  -1.42996 1.29997 0.0 0.12999 0.38998 0.0 C  0.0 -0.12999 -1.42996 -1.29997 -1.55997 -2.07996  " style="fill:none"/>
 </g>
 </g>
 </g>
 </g>
 </g>
  </g>
 </g>
 <g>
 <g>
 <g transform="matrix(1.0,0.0,0.0,1.0,-22.34415,120.04395)">
 <g fill="rgb(0.0%,0.0%,0.0%)">
 <text style="stroke:none" transform="scale(1,-1) translate(9.30559,0)" text-anchor="middle"  font-size="10"> 
x(n)</text> 
</g>
 </g>
 </g>
 </g>
 </g>
 </g>
 <path d=" M  14.22636 0.0 L  14.22636 28.45274 M  15.93346 28.45274 C  15.93346 29.39555 15.16917 30.15984 14.22636 30.15984 C  13.28355 30.15984 12.51927 29.39555 12.51927 28.45274 C  12.51927 27.50993 13.28355 26.74565 14.22636 26.74565 C  15.16917 26.74565 15.93346 27.50993 15.93346 28.45274 Z M  14.22636 28.45274  " />
 <path d=" M  28.45274 0.0 L  28.45274 85.35823 M  30.15984 85.35823 C  30.15984 86.30104 29.39555 87.06532 28.45274 87.06532 C  27.50993 87.06532 26.74565 86.30104 26.74565 85.35823 C  26.74565 84.41542 27.50993 83.65114 28.45274 83.65114 C  29.39555 83.65114 30.15984 84.41542 30.15984 85.35823 Z M  28.45274 85.35823  " />
 <path d=" M  42.67911 0.0 L  42.67911 42.67911 M  44.3862 42.67911 C  44.3862 43.62192 43.62192 44.3862 42.67911 44.3862 C  41.7363 44.3862 40.97202 43.62192 40.97202 42.67911 C  40.97202 41.7363 41.7363 40.97202 42.67911 40.97202 C  43.62192 40.97202 44.3862 41.7363 44.3862 42.67911 Z M  42.67911 42.67911  " />
 <path d=" M  56.90549 0.0 L  56.90549 99.5846 M  58.61258 99.5846 C  58.61258 100.5274 57.8483 101.29169 56.90549 101.29169 C  55.96268 101.29169 55.1984 100.5274 55.1984 99.5846 C  55.1984 98.64178 55.96268 97.8775 56.90549 97.8775 C  57.8483 97.8775 58.61258 98.64178 58.61258 99.5846 Z M  56.90549 99.5846  " />
 <path d=" M  71.13185 0.0 L  71.13185 71.13185 M  72.83894 71.13185 C  72.83894 72.07466 72.07466 72.83894 71.13185 72.83894 C  70.18904 72.83894 69.42476 72.07466 69.42476 71.13185 C  69.42476 70.18904 70.18904 69.42476 71.13185 69.42476 C  72.07466 69.42476 72.83894 70.18904 72.83894 71.13185 Z M  71.13185 71.13185  " />
 <path d=" M  85.35823 0.0 L  85.35823 49.7923 M  87.06532 49.7923 C  87.06532 50.7351 86.30104 51.49939 85.35823 51.49939 C  84.41542 51.49939 83.65114 50.7351 83.65114 49.7923 C  83.65114 48.84949 84.41542 48.0852 85.35823 48.0852 C  86.30104 48.0852 87.06532 48.84949 87.06532 49.7923 Z M  85.35823 49.7923  " />
 </g>
 </g>
 </g>
 </g>
 </g>
 
                                              </g> 
</svg> 
