<?xml version="1.0" encoding="iso-8859-1" standalone="no"?> 
<?xml-stylesheet href="Control-system.css" type="text/css"?> 
<svg xmlns="http://www.w3.org/2000/svg" xmlns:xlink="http://www.w3.org/1999/xlink" width="148.77625pt" height="144.09366pt" viewBox="-24.01044 -13.21674 148.77625 144.09366 "> 
<g transform="translate(0, 130.87692 ) scale(1,-1) translate(0,13.21674 )"> 
       <g>
 <g stroke="rgb(0.0%,0.0%,0.0%)">
 <g fill="rgb(0.0%,0.0%,0.0%)">
 <g stroke-width="0.4pt">
 <g>
 <g>
 <g stroke-width="0.8pt">
 <path d=" M  0.0 0.0 L  113.10097 0.0  " style="fill:none"/>
 <g>
 <g transform="matrix(1.0,0.0,0.0,1.0,113.10097,0.0)">
 <g>
 <g stroke-width="0.64pt">
 <g stroke-dasharray="none" stroke-dashoffset="0.0pt">
 <g stroke-linecap="round">
 <g stroke-linejoin="round">
 <path d=" M  -1.55997 2.07996 C  -1.42996 1.29997 0.0 0.12999 0.38998 0.0 C  0.0 -0.12999 -1.42996 -1.29997 -1.55997 -2.07996  " style="fill:none"/>
 </g>
 </g>
 </g>
 </g>
 </g>
  </g>
 </g>
 <g>
 <g>
 <g transform="matrix(1.0,0.0,0.0,1.0,117.54395,-9.88376)">
 <g fill="rgb(0.0%,0.0%,0.0%)">
 <text style="stroke:none" transform="scale(1,-1) translate(1.94444,0)" text-anchor="middle"  font-size="10"> 
t</text> 
</g>
 </g>
 </g>
 </g>
 </g>
 </g>
 <g>
 <g stroke-width="0.8pt">
 <path d=" M  0.0 0.0 L  0.0 113.10097  " style="fill:none"/>
 <g>
 <g transform="matrix(0.0,1.0,-1.0,0.0,0.0,113.10097)">
 <g>
 <g stroke-width="0.64pt">
 <g stroke-dasharray="none" stroke-dashoffset="0.0pt">
 <g stroke-linecap="round">
 <g stroke-linejoin="round">
 <path d=" M  -1.55997 2.07996 C  -1.42996 1.29997 0.0 0.12999 0.38998 0.0 C  0.0 -0.12999 -1.42996 -1.29997 -1.55997 -2.07996  " style="fill:none"/>
 </g>
 </g>
 </g>
 </g>
 </g>
  </g>
 </g>
 <g>
 <g>
 <g transform="matrix(1.0,0.0,0.0,1.0,-20.67746,120.04395)">
 <g fill="rgb(0.0%,0.0%,0.0%)">
 <text style="stroke:none" transform="scale(1,-1) translate(8.47224,0)" text-anchor="middle"  font-size="10"> 
x(t)</text> 
</g>
 </g>
 </g>
 </g>
 </g>
 </g>
 <path d=" M  0.0 28.45274 C  0.0 28.45274 12.66168 12.66168 28.45274 28.45274 C  44.2438 44.2438 41.11443 85.35823 56.90549 85.35823 C  72.69655 85.35823 85.35823 28.45274 85.35823 28.45274  " style="fill:none"/>
 </g>
 </g>
 </g>
 </g>
 </g>
 
                                             </g> 
</svg> 
